<?xml version="1.0" encoding="utf-8"?>
<!-- Generator: Adobe Illustrator 26.5.0, SVG Export Plug-In . SVG Version: 6.00 Build 0)  -->
<svg version="1.1" id="레이어_1" xmlns="http://www.w3.org/2000/svg" xmlns:xlink="http://www.w3.org/1999/xlink"
	width="500" height="550" viewBox="0 100 600 600" enable-background="new 0 0 600 700" xml:space="preserve">
<path fill="#9B3E2D" d="M304.17,166.25c7.1,2.51,10.24,4.62,14.32,11.41c3.11,5.18,3.95,10.86,4,16.75
	c0.04,5.27,0.01,10.54,0.98,15.98c2.1-6.89,4.14-13.8,6.32-20.67c3.43-10.8,10.69-17.32,21.9-19.27
	c16.68-2.9,32.93,13.39,29.38,29.97c-2.01,9.39-4.84,18.65-8.01,27.73c-1.56,4.48-0.58,6.96,2.96,9.54
	c4.44,3.22,8.34,7.11,11.8,11.4c-0.22,1.43-1.26,1.65-2.48,1.93c-15.64,3.59-30.78,8.75-45.6,14.86c-0.29-0.4-0.49-0.94-0.88-1.18
	c-17.25-10.88-36.19-14.12-56.02-11.07c-19.12,2.94-32.97,14.56-44,29.76c-14.66,20.18-23.01,43.15-28.7,67.21
	c-3.46,14.63-6.91,29.28-7.11,44.44c-1.63-0.21-3.27-0.35-4.89-0.65c-9.36-1.73-15.53-8.28-21.84-14.61
	c-4.07-7.68-6.74-15.64-6.19-24.56c0.47-7.62,2.97-14.82,4.01-22.3c2.38-8.08,4.58-16.22,7.19-24.23
	c5.87-18.06,14.71-34.69,24.86-50.67c4.9-5.63,9.75-11.32,14.75-16.86c1.58-1.75,0.89-3.26,0.35-5.04
	c-3.17-10.5-6.45-20.97-9.35-31.54c-4.55-16.58,4.7-31.12,21.45-34.1c10.87-1.94,23.21,4.72,27.44,15.45
	c2.8,7.09,4.72,14.53,7.01,21.82c0.38,1.21,0.42,2.57,2,3.58c0-6.08-0.02-11.85,0-17.61c0.07-14.15,5.48-22.1,18.65-27.56
	C293.51,164.19,301.49,165.16,304.17,166.25z"/>
<path fill="#CE3143" d="M433.83,319.01c15.38,16.41,25.3,35.6,29.07,57.83c1.92,11.32,2.98,22.71,1.98,34.25
	c-1.44,16.69,0.45,33.22,3.04,49.67c4.35,27.7,10.1,55.22,12.22,83.2c1.82,24.1,1.63,48.17-7.61,71.22
	c-10.16,25.36-28.81,41.77-53.76,51.45c-12.69,4.92-25.96,7.42-39.5,9.23c-14.62,1.95-31.74,0.02-32.45-0.29
	c6.71-1.6,13.46-3.07,20.13-4.83c25.27-6.68,46.31-19.58,60.41-42.24c11.02-17.7,14.26-37.65,15.05-57.98
	c0.56-14.39-1.07-28.75-2.75-43.08c-2.42-20.69-6.56-41.09-9.52-61.68c-0.85-5.91-2.99-11.76-1.72-17.89
	c1.4,1.16,2.72,2.42,4.21,3.44c3.1,2.12,6.24,2.15,9.07-0.47c3.46-3.21,3.28-7.18-0.3-11.48c-4.5-5.41-10.62-8.91-15.8-13.51
	c1-14.07,1.81-28.16-0.11-42.2c-2.98-21.8-10.9-41.56-24.85-58.73C411.48,321.72,422.72,320.76,433.83,319.01z"/>
<path fill="#EE3A47" d="M428.41,447.88c-1.27,6.13,0.87,11.99,1.72,17.89c2.96,20.59,7.09,40.99,9.52,61.68
	c1.68,14.33,3.31,28.68,2.75,43.08c-0.8,20.34-4.03,40.28-15.05,57.98c-14.09,22.65-35.14,35.55-60.41,42.24
	c-6.67,1.76-13.42,3.23-20.13,4.83c-33.22-4.15-62.73-17.62-90.13-36.24c-44.05-29.94-78.39-68.64-102.99-115.93
	c-14.54-27.94-23.8-57.42-24.03-89.23c-0.2-26.76,4.06-52.66,16.32-76.8c1.17,9.38,4.74,17.09,13.87,21.43
	c5.47,2.6,10.91,1.74,16.46,0.95c6.31,6.33,12.48,12.88,21.84,14.61c1.61,0.3,3.26,0.44,4.89,0.65c1.24,1.18,2.8,0.81,4.25,0.82
	c15.44,0.09,31.13-10.91,35.38-25.73c3.31-11.56,5.58-23.43,8.31-35.16c2.62,0.75,5.28,1.2,8.02,0.99c0.42,0.81,1.16,0.98,1.98,0.97
	l-0.01-0.01c0.17,0.63,0.18,1.39,0.55,1.87c9.14,12.04,13.35,25.88,15.63,40.65c1.37,8.9,6.58,15.19,15.65,18.05
	c4.8,1.51,9.42,0.07,14.1,0.39c1.19,1.14,2.51,2.17,3.55,3.44c7.59,9.26,23.24,14.99,36.39,10.63c3.89,0.25,6.93-1.83,10.09-3.63
	c12.79-7.29,19.83-22.3,18.07-36.93c-0.4-3.35-2.91-6.96-0.29-10.48c5.87,6.61,10.34,14.21,15.44,21.35
	c4.89,6.85,3.54,12.3-0.59,18.6c-5.34,8.17-12.14,14.92-18.92,21.78c-3.17,3.21-3.2,7.25-0.51,10.27c2.81,3.17,7.12,3.47,10.64,0.46
	c2.64-2.25,5.14-4.65,7.56-7.19c4.99-5.22,9.4-10.91,14.24-17.45c1.54,5.79,2.9,10.56,4.07,15.38c3.16,13.04,3.25,26.32,3,39.64
	c-0.11,6.01,3.77,9.36,9.11,8.08c4.21-1.01,5.73-4.26,5.79-8.25c0.09-6.05,0.02-12.1,0.02-19.19
	C426.48,446.14,427.45,447.01,428.41,447.88z M269.72,563.67c6.83,5.16,13.08,10.08,19.55,14.7c3.9,2.78,8.09,2.12,10.71-1.13
	c2.77-3.44,2.28-6.82-1.56-10.5c-0.96-0.92-1.97-1.8-3.06-2.55c-12.76-8.85-24.04-19.38-34.34-30.96
	c-3.81-4.28-7.49-8.72-10.76-14.3c6.27,0,11.87,0.06,17.47-0.02c5.3-0.07,7.92-2.24,8.27-6.64c0.36-4.55-2.26-7.66-7.4-8.2
	c-3.29-0.34-6.64-0.03-9.96-0.15c-6.12-0.22-13.5,2.34-18.02-0.92c-5.18-3.74-6.9-11.45-9.6-17.71
	c-7.03-16.29-11.37-33.26-12.99-50.94c-0.44-4.78-3.43-7.6-7.66-7.51c-4.16,0.09-7.04,3.18-7.25,7.9c-0.07,1.49-0.03,3.01,0.16,4.49
	c1.44,11.38,3.73,22.58,7.21,33.53c0.78,2.44,1.89,4.83,1.02,7.71c-3.96,13.05-6.08,26.49-8.12,39.95
	c-0.89,5.88,0.99,9.68,5.58,10.48c4.96,0.87,7.99-1.46,9.12-7.41c1.28-6.75,2.31-13.54,3.57-21.06c0.98,1.15,1.48,1.56,1.76,2.09
	c8.12,15.16,17.58,29.38,29.36,41.96c1.83,1.96,2.4,4.19,2.19,6.84c-0.68,8.44-1.37,16.85-0.05,25.34c1.01,6.46,3.27,9.46,8.17,9.27
	c5.09-0.2,7.04-3.11,6.91-9.94C269.91,573.45,268.11,568.92,269.72,563.67z"/>
<path fill="#F67474" d="M153.24,332.78c-20.16,0.85-34.77-8.6-40.54-26.23c-6.96-21.25,7.54-44.62,29.68-47.71
	c11.56-1.62,23.2-1.02,34.81-0.78c-5.42,10.75-11.18,21.35-14.99,32.85C157.69,304.53,153.06,318.14,153.24,332.78z"/>
<path fill="#E45555" d="M153.24,332.78c-0.18-14.64,4.45-28.24,8.96-41.87c3.8-11.49,9.56-22.09,14.99-32.85
	c9.65-0.93,19.31-0.29,28.97-0.06c-10.15,15.97-18.99,32.6-24.86,50.67c-2.6,8.01-4.8,16.15-7.19,24.23
	c-4.69,0.02-9.38,0.04-14.07,0.07C157.77,332.9,155.51,332.84,153.24,332.78z"/>
<path fill="#CD3043" d="M160.04,332.97c4.69-0.02,9.38-0.04,14.07-0.07c-1.03,7.48-3.54,14.68-4.01,22.3
	c-0.55,8.92,2.13,16.88,6.19,24.56c-5.54,0.79-10.99,1.65-16.46-0.95c-9.13-4.34-12.7-12.05-13.87-21.43
	C149.06,348.31,154.98,340.89,160.04,332.97z"/>
<path fill="#F67373" d="M346.83,411.93c-13.15,4.37-28.79-1.37-36.39-10.63c-1.04-1.27-2.36-2.3-3.55-3.44
	c-4-7.18-5.87-14.96-7.35-23.03c-3.01-16.39-9.87-30.35-26.75-36.8c-0.01-2.08,0.97-3.82,1.9-5.58
	c11.13-20.99,23.88-40.7,43.15-55.31c7.3-3.76,14.6-7.52,21.9-11.27c14.83-6.11,29.96-11.27,45.6-14.86
	c1.22-0.28,2.26-0.5,2.48-1.93c5.41,1.9,10.33-1.13,15.5-1.65c9.06-0.92,18.06-3.61,27.19-1.99c18.13,3.21,28.73,14.69,31.74,33.56
	c-1.33,0.01-2.67-0.12-3.98,0.04c-16.69,2.08-33.38,4.11-49.79,7.94c-22.99,5.36-45.23,12.87-66.21,23.78
	c-9.43,4.91-13.9,14.81-11.63,25.03c3.12,14.05,6.64,28.01,9.57,42.1C342.55,389.2,345.64,400.39,346.83,411.93z"/>
<path fill="#E45555" d="M346.83,411.93c-1.19-11.55-4.28-22.73-6.63-34.05c-2.93-14.09-6.45-28.05-9.57-42.1
	c-2.27-10.22,2.2-20.12,11.63-25.03c20.98-10.92,43.22-18.42,66.21-23.78c16.41-3.83,33.11-5.85,49.79-7.94
	c1.31-0.16,2.65-0.03,3.98-0.04c2.12,15.95-8.1,34.22-28.41,40.01c-11.11,1.74-22.35,2.71-33.19,5.92
	c-10.25,2.35-20.53,4.61-29.84,9.82c-1.95,0.29-4.81,0.4-3.77,3.19c2.82,7.57,3.39,15.89,7.67,22.95
	c-2.62,3.52-0.11,7.14,0.29,10.48c1.76,14.63-5.27,29.64-18.07,36.93C353.76,410.11,350.72,412.19,346.83,411.93z"/>
<path fill="#7A232E" d="M339.74,265.87c-7.3,3.76-14.6,7.52-21.9,11.27c-18.02-12.88-34.74-9.91-48.99,1.03
	c-15.24,11.7-23.6,28.35-29.66,46.13c-1.93,5.67,1.28,9.58,7.31,10.5c1.46,0.22,2.98,0.11,4.47,0.15
	c-2.73,11.73-4.99,23.6-8.31,35.16c-4.25,14.81-19.94,25.82-35.38,25.73c-1.45-0.01-3.01,0.36-4.25-0.82
	c0.2-15.16,3.65-29.81,7.11-44.44c5.69-24.05,14.04-47.03,28.7-67.21c11.04-15.19,24.88-26.82,44-29.76
	c19.84-3.05,38.77,0.19,56.02,11.07C339.25,264.93,339.45,265.46,339.74,265.87z"/>
<path fill="#F1C759" d="M374.69,360.9c-4.28-7.06-4.85-15.38-7.67-22.95c-1.04-2.8,1.82-2.9,3.77-3.19
	c24.83,23.4,42.4,51.13,50.12,84.69c0.66,2.87,1.62,5.37,4.67,6.42c5.18,4.6,11.3,8.1,15.8,13.51c3.58,4.3,3.76,8.26,0.3,11.48
	c-2.83,2.63-5.97,2.59-9.07,0.47c-1.49-1.02-2.81-2.29-4.21-3.44c-0.97-0.87-1.93-1.74-3.86-3.48c0,7.08,0.07,13.14-0.02,19.19
	c-0.06,3.99-1.58,7.24-5.79,8.25c-5.34,1.28-9.23-2.07-9.11-8.08c0.25-13.32,0.16-26.6-3-39.64c-1.17-4.82-2.53-9.59-4.07-15.38
	c-4.84,6.54-9.24,12.23-14.24,17.45c-2.42,2.53-4.93,4.93-7.56,7.19c-3.52,3.01-7.83,2.7-10.64-0.46
	c-2.68-3.03-2.66-7.06,0.51-10.27c6.78-6.86,13.58-13.61,18.92-21.78c4.13-6.31,5.48-11.76,0.59-18.6
	C385.03,375.1,380.56,367.5,374.69,360.9z"/>
<path fill="#EE3B47" d="M425.59,425.87c-3.05-1.05-4.01-3.55-4.67-6.42c-7.73-33.56-25.29-61.29-50.12-84.69
	c9.31-5.21,19.59-7.47,29.84-9.82c13.95,17.17,21.86,36.94,24.85,58.74C427.4,397.71,426.59,411.8,425.59,425.87z"/>
<path fill="#F1C759" d="M269.72,563.67c-1.61,5.26,0.19,9.79,0.28,14.35c0.13,6.82-1.82,9.74-6.91,9.94
	c-4.89,0.19-7.16-2.81-8.17-9.27c-1.33-8.49-0.63-16.9,0.05-25.34c0.21-2.65-0.36-4.89-2.19-6.84
	c-11.78-12.58-21.24-26.8-29.36-41.96c-0.28-0.53-0.78-0.94-1.76-2.09c-1.26,7.52-2.28,14.31-3.57,21.06
	c-1.13,5.95-4.17,8.28-9.12,7.41c-4.59-0.8-6.47-4.6-5.58-10.48c2.04-13.46,4.15-26.9,8.12-39.95c0.87-2.88-0.24-5.26-1.02-7.71
	c-3.48-10.95-5.77-22.15-7.21-33.53c-0.19-1.48-0.23-3-0.16-4.49c0.21-4.72,3.08-7.81,7.25-7.9c4.23-0.09,7.22,2.73,7.66,7.51
	c1.62,17.68,5.95,34.65,12.99,50.94c2.7,6.25,4.42,13.96,9.6,17.71c4.52,3.26,11.91,0.7,18.02,0.92c3.32,0.12,6.67-0.19,9.96,0.15
	c5.14,0.54,7.76,3.65,7.4,8.2c-0.35,4.39-2.97,6.56-8.27,6.64c-5.6,0.08-11.2,0.02-17.47,0.02c3.27,5.58,6.95,10.02,10.76,14.3
	c10.31,11.57,21.58,22.1,34.34,30.96c1.09,0.75,2.1,1.64,3.06,2.55c3.84,3.68,4.32,7.06,1.56,10.5c-2.62,3.25-6.81,3.91-10.71,1.13
	C282.8,573.75,276.55,568.83,269.72,563.67z"/>
<path fill="#E45555" d="M250.96,334.95c-1.49-0.04-3,0.07-4.47-0.15c-6.02-0.92-9.24-4.83-7.31-10.5
	c6.06-17.78,14.41-34.44,29.66-46.13c14.25-10.94,30.97-13.91,48.99-1.03c-19.27,14.61-32.02,34.32-43.15,55.31
	c-0.93,1.76-1.91,3.5-1.9,5.58c-3.94-0.37-7.89-0.75-11.83-1.12l0.01,0.01c-0.42-0.82-1.16-0.97-1.98-0.97
	C256.24,336.15,253.58,335.7,250.96,334.95z"/>
<path fill="#CE3043" d="M260.96,336.91c3.94,0.37,7.89,0.75,11.83,1.12c16.87,6.45,23.74,20.42,26.75,36.81
	c1.48,8.07,3.35,15.85,7.35,23.03c-4.68-0.32-9.31,1.12-14.1-0.39c-9.07-2.86-14.28-9.15-15.65-18.05
	c-2.28-14.77-6.5-28.61-15.63-40.65C261.14,338.29,261.13,337.54,260.96,336.91z"/>
<path fill="#CE3043" d="M258.99,335.95c0.82,0,1.56,0.16,1.98,0.97C260.15,336.92,259.41,336.76,258.99,335.95z"/>
</svg>
