<svg width="400" height="500" viewBox="0 50 400 500" xmlns="http://www.w3.org/2000/svg">
<path d="M298.66 280.96H287.51C279.02 280.96 271.95 274.71 270.18
266.36C268.41 274.71 261.35 280.96 252.94 280.96H241.75C232.01 280.96 224.08 272.57 224.08 262.25V237.13C224.08 225.15 228.37 214.58 235.54 206.63C227.71 204.97 219.59 204.08 211.26 204.08H113.37C101.91 204.08 92.43 213.34 92.43 225.02V380.89C92.43 380.89 94.41 417.71 132.56 414.84C170.7 411.97 169.6 374.27 169.6 374.27L164.97 322.46C164.97 322.46 164.09 315.18 154.39 316.29C144.69 317.17 146.23 325.33 146.23 325.33L150.86 375.82C150.86 375.82 147.99 396.1 131.02 397.21C131.02 397.21 114.04 399.64 109.85 380.45V263.6C109.85 263.6 124.84 262.28 151.3 265.36C177.76 268.23 181.28 267.79 189.44 272.41C197.6 277.04 213.91 300.85 219.86 303.72C225.81 306.59 227.8 308.79 236.4 309.23C245 309.67 282.04 310.99 285.34 313.2C288.65 315.4 299.01 319.59 297.91 333.48C296.81 347.37 295.04 366.11 270.57 380.22C270.57 380.22 206.63 395.87 198.04 398.3C189.44 400.73 180.84 402.71 176.21 412.85C171.8 422.99 158.13 455.84 158.13 455.84C158.13 455.84 155.26 464.66 165.19 464.66H211.05C275.43 464.66 327.68 412.41 327.68 348.25V320.7C327.74 301.85 323.28 284.06 315.37 268.3C312.98 275.66 306.4 280.96 298.66 280.96Z" fill="#FF4343"/>
<path d="M315.87 205.16C306.7 205.16 298.82 208.4 293.07 213.75C287.32 208.4 279.41 205.16 270.21 205.16C251.23 205.16 237.51 218.97 237.51 237.13V262.25C237.51 265.18 239.47 267.54 241.76 267.54H252.95C255.27 267.54 257.2 265.19 257.2 262.25V237.13C257.2 230.04 262.37 224.02 270.19 224.02C277.77 224.02 282.78 229.52 283.21 236.21C283.21 236.52 283.18 236.82 283.18 237.13V262.25C283.18 265.18 285.14 267.54 287.43 267.54H287.52H298.64H298.67C300.96 267.54 302.92 265.19 302.92 262.25V237.13C302.92 237.1 302.92 237.1 302.92 237.07C302.95 230.01 308.12 224.02 315.91 224.02C323.86 224.02 329.02 230.04 329.02 237.13H328.99V262.25C328.99 265.18 330.92 267.54 333.24 267.54H344.36C346.65 267.54 348.61 265.19 348.61 262.25V237.13C348.57 218.97 335 205.16 315.87 205.16Z" fill="#FF4343"/>
</svg>
