<svg width="40" height="40" viewBox="0 0 40 40" fill="none" xmlns="http://www.w3.org/2000/svg">
<path d="M16.3061 31.2401C15.6025 31.6975 14.8813 31.7242 14.1425 31.3203C13.4037 30.9164 13.0343 30.2916 13.0343 29.4459V15.9894L0.580475 3.53562C0.193491 3.14864 0 2.65611 0 2.05805C0 1.45998 0.193491 0.967459 0.580475 0.580475C0.967458 0.193492 1.45998 0 2.05805 0C2.65611 0 3.14864 0.193492 3.53562 0.580475L39.4195 36.4644C39.8065 36.8514 40 37.3354 40 37.9166C40 38.4978 39.7889 38.9988 39.3668 39.4195C38.9446 39.8065 38.4521 40 37.8892 40C37.3263 40 36.8338 39.7889 36.4116 39.3668L23.5884 26.5435L16.3061 31.2401ZM30.8707 21.8997L13.0343 4.06333V3.7467L33.4565 16.7282C34.1249 17.1152 34.4507 17.7048 34.4338 18.4971C34.4169 19.2894 34.0735 19.8959 33.4037 20.3166L30.8707 21.8997Z" fill="#6E7482"/>
</svg>
