<svg
    xmlns="http://www.w3.org/2000/svg"
    viewBox="0 0 48 48"
    id="vector">
    <path
        id="path"
        d="M 4 4 L 44 4 L 44 44 L 4 44 Z"
        fill="#381e1f"
        stroke-width="1"/>
    <path
        id="path_1"
        d="M 44.25 0 L 3.75 0 C 1.678 0 0 1.68 0 3.75 L 0 44.25 C 0 46.322 1.68 48 3.75 48 L 44.25 48 C 46.322 48 48 46.32 48 44.25 L 48 3.75 C 48 1.678 46.32 0 44.25 0 Z M 24 37.5 C 22.818 37.5 21.66 37.418 20.536 37.26 C 19.412 38.052 12.91 42.618 12.296 42.704 C 12.296 42.704 12.046 42.802 11.832 42.676 C 11.618 42.55 11.656 42.218 11.656 42.218 C 11.72 41.778 13.342 36.182 13.64 35.152 C 8.15 32.432 4.5 27.614 4.5 22.126 C 4.5 13.634 13.23 6.75 24 6.75 C 34.77 6.75 43.5 13.634 43.5 22.126 C 43.5 30.616 34.77 37.5 24 37.5 Z M 16.1 19.734 L 14.344 19.734 L 14.344 26.418 C 14.344 27.01 13.84 27.492 13.218 27.492 C 12.596 27.492 12.094 27.012 12.094 26.418 L 12.094 19.734 L 10.338 19.734 C 10.06 19.713 9.8 19.589 9.61 19.384 C 9.421 19.18 9.315 18.912 9.315 18.633 C 9.315 18.354 9.421 18.086 9.61 17.882 C 9.8 17.677 10.06 17.552 10.338 17.532 L 16.098 17.532 C 16.376 17.552 16.636 17.677 16.826 17.882 C 17.015 18.086 17.121 18.354 17.121 18.633 C 17.121 18.912 17.015 19.18 16.826 19.384 C 16.636 19.589 16.376 19.713 16.098 19.734 L 16.1 19.734 Z M 38.074 25.648 C 38.164 25.766 38.229 25.9 38.267 26.043 C 38.304 26.186 38.313 26.335 38.292 26.482 C 38.272 26.628 38.222 26.769 38.147 26.896 C 38.072 27.023 37.972 27.134 37.854 27.222 C 37.66 27.37 37.422 27.45 37.178 27.45 C 37.003 27.451 36.831 27.411 36.675 27.333 C 36.518 27.255 36.383 27.142 36.278 27.002 L 33.64 23.508 L 33.25 23.898 L 33.25 26.352 C 33.249 26.65 33.131 26.936 32.92 27.147 C 32.71 27.358 32.424 27.477 32.126 27.478 C 31.827 27.478 31.541 27.359 31.33 27.148 C 31.119 26.937 31 26.651 31 26.352 L 31 18.656 C 31.012 18.366 31.136 18.092 31.346 17.891 C 31.555 17.69 31.835 17.577 32.125 17.577 C 32.415 17.577 32.695 17.69 32.904 17.891 C 33.114 18.092 33.238 18.366 33.25 18.656 L 33.25 21.076 L 36.39 17.936 C 36.472 17.855 36.569 17.791 36.676 17.748 C 36.783 17.705 36.897 17.683 37.012 17.684 C 37.292 17.684 37.576 17.806 37.788 18.018 C 37.981 18.207 38.098 18.46 38.118 18.73 C 38.128 18.855 38.112 18.982 38.069 19.1 C 38.026 19.218 37.958 19.326 37.87 19.416 L 35.306 21.978 L 38.074 25.648 Z M 21.374 18.644 C 21.184 18.104 20.608 17.548 19.874 17.532 C 19.142 17.548 18.566 18.104 18.376 18.642 L 15.686 25.724 C 15.344 26.784 15.642 27.18 15.952 27.324 C 16.176 27.426 16.42 27.479 16.666 27.478 C 17.136 27.478 17.494 27.288 17.602 26.982 L 18.16 25.522 L 21.59 25.522 L 22.148 26.982 C 22.256 27.288 22.614 27.478 23.084 27.478 C 23.33 27.478 23.574 27.424 23.798 27.322 C 24.108 27.18 24.406 26.786 24.064 25.722 L 21.374 18.644 Z M 18.752 23.53 L 19.876 20.338 L 20.998 23.53 L 18.752 23.53 Z M 30.562 26.296 C 30.556 26.576 30.439 26.841 30.236 27.035 C 30.034 27.229 29.764 27.334 29.484 27.328 L 25.876 27.328 C 25.737 27.331 25.599 27.307 25.47 27.257 C 25.341 27.207 25.223 27.132 25.122 27.036 C 25.022 26.94 24.942 26.825 24.886 26.698 C 24.829 26.571 24.799 26.435 24.796 26.296 L 24.796 18.656 C 24.796 18.036 25.312 17.532 25.946 17.532 C 26.58 17.532 27.094 18.036 27.094 18.656 L 27.094 25.266 L 29.484 25.266 C 30.078 25.266 30.562 25.728 30.562 26.296 Z"
        fill="#fee102"
        stroke-width="1"/>
</svg>
